<svg xmlns="http://www.w3.org/2000/svg" xmlns:xlink="http://www.w3.org/1999/xlink" xmlns:lucid="lucid" width="991" height="1891.84"><g transform="translate(-240 0)" lucid:page-tab-id="0_0"><path d="M0 0h1870.87v2581.67H0z" fill="#fff"/><path d="M814.36 20c15.86 0 28.72 17.53 28.72 39.16 0 21.62-12.86 39.16-28.72 39.16H728.2c-15.86 0-28.7-17.54-28.7-39.16 0-21.63 12.84-39.16 28.7-39.16z" stroke="#5e5e5e" stroke-width="3" fill="#fff"/><use xlink:href="#a" transform="matrix(1,0,0,1,704.4871794871794,25) translate(33.111111111111114 39.34027777777778)"/><path d="M861.03 576.9c0-3.3 2.68-6 6-6h131.6c3.3 0 6 2.7 6 6v142.02c0 3.32-2.7 6-6 6h-131.6c-3.32 0-6-2.68-6-6z" stroke="#5e5e5e" stroke-width="3" fill="#fff"/><use xlink:href="#b" transform="matrix(1,0,0,1,873.025641025641,582.9032739099483) translate(0.864197530864196 17.77777777777778)"/><use xlink:href="#c" transform="matrix(1,0,0,1,873.025641025641,582.9032739099483) translate(2.9012345679012412 44.44444444444444)"/><use xlink:href="#d" transform="matrix(1,0,0,1,873.025641025641,582.9032739099483) translate(22.654320987654327 44.44444444444444)"/><use xlink:href="#e" transform="matrix(1,0,0,1,873.025641025641,582.9032739099483) translate(87.53086419753086 44.44444444444444)"/><use xlink:href="#f" transform="matrix(1,0,0,1,873.025641025641,582.9032739099483) translate(9.47530864197531 71.11111111111111)"/><use xlink:href="#g" transform="matrix(1,0,0,1,873.025641025641,582.9032739099483) translate(58.7962962962963 71.11111111111111)"/><use xlink:href="#h" transform="matrix(1,0,0,1,873.025641025641,582.9032739099483) translate(10.648148148148152 97.77777777777777)"/><use xlink:href="#i" transform="matrix(1,0,0,1,873.025641025641,582.9032739099483) translate(78.54938271604938 97.77777777777777)"/><use xlink:href="#j" transform="matrix(1,0,0,1,873.025641025641,582.9032739099483) translate(38.39506172839506 124.44444444444446)"/><path d="M932.82 531.55v19.35" stroke="#5e5e5e" stroke-width="2" fill="none"/><path d="M933.82 531.58h-2v-1.03h2z" stroke="#5e5e5e" stroke-width=".05" fill="#5e5e5e"/><path d="M932.82 566.17l-4.63-14.27h9.26z" stroke="#5e5e5e" stroke-width="2" fill="#5e5e5e"/><path d="M932.82 727.42v36.16" stroke="#5e5e5e" stroke-width="2" fill="none"/><path d="M933.82 727.45h-2v-1.03h2z" stroke="#5e5e5e" stroke-width=".05" fill="#5e5e5e"/><path d="M932.82 778.84l-4.63-14.26h9.26z" stroke="#5e5e5e" stroke-width="2" fill="#5e5e5e"/><path d="M861.03 789.58c0-3.3 2.68-6 6-6h131.6c3.3 0 6 2.7 6 6v105.47c0 3.32-2.7 6-6 6h-131.6c-3.32 0-6-2.68-6-6z" stroke="#5e5e5e" stroke-width="3" fill="#fff"/><use xlink:href="#k" transform="matrix(1,0,0,1,873.025641025641,795.5789473366593) translate(6.388888888888893 23.65277777777778)"/><use xlink:href="#d" transform="matrix(1,0,0,1,873.025641025641,795.5789473366593) translate(12.777777777777786 50.31944444444445)"/><use xlink:href="#e" transform="matrix(1,0,0,1,873.025641025641,795.5789473366593) translate(77.65432098765432 50.31944444444445)"/><use xlink:href="#l" transform="matrix(1,0,0,1,873.025641025641,795.5789473366593) translate(38.425925925925924 76.98611111111111)"/><path d="M932.82 903.55v36.16" stroke="#5e5e5e" stroke-width="2" fill="none"/><path d="M933.82 903.58h-2v-1.03h2z" stroke="#5e5e5e" stroke-width=".05" fill="#5e5e5e"/><path d="M932.82 954.97l-4.63-14.26h9.26z" stroke="#5e5e5e" stroke-width="2" fill="#5e5e5e"/><path d="M861.03 965.7c0-3.3 2.68-6 6-6h131.6c3.3 0 6 2.7 6 6v142.03c0 3.3-2.7 6-6 6h-131.6c-3.32 0-6-2.7-6-6z" stroke="#5e5e5e" stroke-width="3" fill="#fff"/><use xlink:href="#b" transform="matrix(1,0,0,1,873.025641025641,971.7072523438379) translate(0.864197530864196 17.77777777777778)"/><use xlink:href="#d" transform="matrix(1,0,0,1,873.025641025641,971.7072523438379) translate(12.777777777777786 44.44444444444444)"/><use xlink:href="#e" transform="matrix(1,0,0,1,873.025641025641,971.7072523438379) translate(77.65432098765432 44.44444444444444)"/><use xlink:href="#m" transform="matrix(1,0,0,1,873.025641025641,971.7072523438379) translate(9.47530864197531 71.11111111111111)"/><use xlink:href="#g" transform="matrix(1,0,0,1,873.025641025641,971.7072523438379) translate(58.7962962962963 71.11111111111111)"/><use xlink:href="#h" transform="matrix(1,0,0,1,873.025641025641,971.7072523438379) translate(10.648148148148152 97.77777777777777)"/><use xlink:href="#i" transform="matrix(1,0,0,1,873.025641025641,971.7072523438379) translate(78.54938271604938 97.77777777777777)"/><use xlink:href="#n" transform="matrix(1,0,0,1,873.025641025641,971.7072523438379) translate(38.39506172839506 124.44444444444446)"/><path d="M932.82 1116.23v38.93" stroke="#5e5e5e" stroke-width="2" fill="none"/><path d="M933.82 1116.25h-2v-1.02h2z" stroke="#5e5e5e" stroke-width=".05" fill="#5e5e5e"/><path d="M932.82 1170.42l-4.63-14.26h9.26z" stroke="#5e5e5e" stroke-width="2" fill="#5e5e5e"/><path d="M861.03 1181.16c0-3.32 2.68-6 6-6h131.6c3.3 0 6 2.68 6 6v105.47c0 3.32-2.7 6-6 6h-131.6c-3.32 0-6-2.68-6-6z" stroke="#5e5e5e" stroke-width="3" fill="#fff"/><use xlink:href="#k" transform="matrix(1,0,0,1,873.025641025641,1187.157894688792) translate(6.388888888888893 23.65277777777778)"/><use xlink:href="#d" transform="matrix(1,0,0,1,873.025641025641,1187.157894688792) translate(12.777777777777786 50.31944444444445)"/><use xlink:href="#e" transform="matrix(1,0,0,1,873.025641025641,1187.157894688792) translate(77.65432098765432 50.31944444444445)"/><use xlink:href="#o" transform="matrix(1,0,0,1,873.025641025641,1187.157894688792) translate(43.95061728395062 76.98611111111111)"/><path d="M861.03 1346.93c0-3.32 2.68-6 6-6h131.6c3.3 0 6 2.68 6 6v115.9c0 3.33-2.7 6-6 6h-131.6c-3.32 0-6-2.67-6-6z" stroke="#5e5e5e" stroke-width="3" fill="#fff"/><use xlink:href="#b" transform="matrix(1,0,0,1,873.025641025641,1352.9263157345285) translate(0.864197530864196 17.77777777777778)"/><use xlink:href="#d" transform="matrix(1,0,0,1,873.025641025641,1352.9263157345285) translate(12.777777777777786 44.44444444444444)"/><use xlink:href="#e" transform="matrix(1,0,0,1,873.025641025641,1352.9263157345285) translate(77.65432098765432 44.44444444444444)"/><use xlink:href="#p" transform="matrix(1,0,0,1,873.025641025641,1352.9263157345285) translate(15 71.11111111111111)"/><use xlink:href="#g" transform="matrix(1,0,0,1,873.025641025641,1352.9263157345285) translate(53.2716049382716 71.11111111111111)"/><use xlink:href="#h" transform="matrix(1,0,0,1,873.025641025641,1352.9263157345285) translate(10.648148148148152 97.77777777777777)"/><use xlink:href="#i" transform="matrix(1,0,0,1,873.025641025641,1352.9263157345285) translate(78.54938271604938 97.77777777777777)"/><use xlink:href="#q" transform="matrix(1,0,0,1,873.025641025641,1352.9263157345285) translate(38.39506172839506 124.44444444444446)"/><path d="M932.82 1295.13v25.8" stroke="#5e5e5e" stroke-width="2" fill="none"/><path d="M933.82 1295.16h-2v-1.03h2z" stroke="#5e5e5e" stroke-width=".05" fill="#5e5e5e"/><path d="M932.82 1336.2l-4.63-14.28h9.26z" stroke="#5e5e5e" stroke-width="2" fill="#5e5e5e"/><path d="M932.82 1471.34v36.24" stroke="#5e5e5e" stroke-width="2" fill="none"/><path d="M933.82 1471.37h-2v-1.03h2z" stroke="#5e5e5e" stroke-width=".05" fill="#5e5e5e"/><path d="M932.82 1522.84l-4.63-14.26h9.26z" stroke="#5e5e5e" stroke-width="2" fill="#5e5e5e"/><path d="M861.03 1533.58c0-3.3 2.68-6 6-6h131.6c3.3 0 6 2.7 6 6v105.47c0 3.32-2.7 6-6 6h-131.6c-3.32 0-6-2.68-6-6z" stroke="#5e5e5e" stroke-width="3" fill="#fff"/><use xlink:href="#k" transform="matrix(1,0,0,1,873.025641025641,1539.5789473057118) translate(6.388888888888893 23.65277777777778)"/><use xlink:href="#d" transform="matrix(1,0,0,1,873.025641025641,1539.5789473057118) translate(12.777777777777786 50.31944444444445)"/><use xlink:href="#e" transform="matrix(1,0,0,1,873.025641025641,1539.5789473057118) translate(77.65432098765432 50.31944444444445)"/><use xlink:href="#r" transform="matrix(1,0,0,1,873.025641025641,1539.5789473057118) translate(45.833333333333336 76.98611111111111)"/><path d="M861.03 1718.93c0-3.32 2.68-6 6-6h131.6c3.3 0 6 2.68 6 6v115.9c0 3.33-2.7 6-6 6h-131.6c-3.32 0-6-2.67-6-6z" stroke="#5e5e5e" stroke-width="3" fill="#fff"/><use xlink:href="#b" transform="matrix(1,0,0,1,873.025641025641,1724.926315796423) translate(0.864197530864196 17.77777777777778)"/><use xlink:href="#d" transform="matrix(1,0,0,1,873.025641025641,1724.926315796423) translate(12.777777777777786 44.44444444444444)"/><use xlink:href="#e" transform="matrix(1,0,0,1,873.025641025641,1724.926315796423) translate(77.65432098765432 44.44444444444444)"/><use xlink:href="#s" transform="matrix(1,0,0,1,873.025641025641,1724.926315796423) translate(16.882716049382722 71.11111111111111)"/><use xlink:href="#g" transform="matrix(1,0,0,1,873.025641025641,1724.926315796423) translate(51.38888888888889 71.11111111111111)"/><use xlink:href="#h" transform="matrix(1,0,0,1,873.025641025641,1724.926315796423) translate(10.648148148148152 97.77777777777777)"/><use xlink:href="#i" transform="matrix(1,0,0,1,873.025641025641,1724.926315796423) translate(78.54938271604938 97.77777777777777)"/><use xlink:href="#t" transform="matrix(1,0,0,1,873.025641025641,1724.926315796423) translate(38.39506172839506 124.44444444444446)"/><path d="M932.82 1647.55v45.37" stroke="#5e5e5e" stroke-width="2" fill="none"/><path d="M933.82 1647.58h-2v-1.03h2z" stroke="#5e5e5e" stroke-width=".05" fill="#5e5e5e"/><path d="M932.82 1708.2l-4.63-14.28h9.26z" stroke="#5e5e5e" stroke-width="2" fill="#5e5e5e"/><path d="M858.53 1776.88h-13.4" stroke="#5e5e5e" stroke-width="2" fill="none"/><path d="M859.53 1777.88h-1.03v-2h1.03z" stroke="#5e5e5e" stroke-width=".05" fill="#5e5e5e"/><path d="M829.87 1776.88l14.26-4.63v9.27z" stroke="#5e5e5e" stroke-width="2" fill="#5e5e5e"/><path d="M681.54 1718.93c0-3.32 2.68-6 6-6h131.6c3.3 0 6 2.68 6 6v115.9c0 3.33-2.7 6-6 6h-131.6c-3.32 0-6-2.67-6-6z" stroke="#5e5e5e" stroke-width="3" fill="#fff"/><use xlink:href="#u" transform="matrix(1,0,0,1,693.5384615384614,1724.926315796423) translate(19.320987654320994 17.77777777777778)"/><use xlink:href="#v" transform="matrix(1,0,0,1,693.5384615384614,1724.926315796423) translate(4.104938271604951 44.44444444444444)"/><use xlink:href="#w" transform="matrix(1,0,0,1,693.5384615384614,1724.926315796423) translate(86.26543209876543 44.44444444444444)"/><use xlink:href="#x" transform="matrix(1,0,0,1,693.5384615384614,1724.926315796423) translate(22.623456790123463 71.11111111111111)"/><use xlink:href="#y" transform="matrix(1,0,0,1,693.5384615384614,1724.926315796423) translate(15 97.77777777777777)"/><use xlink:href="#z" transform="matrix(1,0,0,1,693.5384615384614,1724.926315796423) translate(72.90123456790124 97.77777777777777)"/><use xlink:href="#A" transform="matrix(1,0,0,1,693.5384615384614,1724.926315796423) translate(21.7283950617284 124.44444444444446)"/><path d="M679.04 1776.88h-63.3c-3.3 0-6-2.68-6-6V1643.1" stroke="#5e5e5e" stroke-width="2" fill="none"/><path d="M680.04 1777.88H679v-2h1.04z" stroke="#5e5e5e" stroke-width=".05" fill="#5e5e5e"/><path d="M609.74 1627.84l4.64 14.27h-9.27z" stroke="#5e5e5e" stroke-width="2" fill="#5e5e5e"/><path d="M605.22 1472.8c2.5-2.2 6.55-2.2 9.04 0l80.7 70.4c2.5 2.2 2.5 5.72 0 7.9l-80.7 70.43c-2.5 2.18-6.54 2.18-9.04 0l-80.7-70.43c-2.5-2.18-2.5-5.7 0-7.9z" stroke="#5e5e5e" stroke-width="3" fill="#fff"/><use xlink:href="#B" transform="matrix(1,0,0,1,525,1473.842105202892) translate(66.01734567901235 36.15277777777778)"/><use xlink:href="#C" transform="matrix(1,0,0,1,525,1473.842105202892) translate(28.424753086419752 62.81944444444445)"/><use xlink:href="#D" transform="matrix(1,0,0,1,525,1473.842105202892) translate(107.31364197530864 62.81944444444445)"/><use xlink:href="#E" transform="matrix(1,0,0,1,525,1473.842105202892) translate(41.727222222222224 89.48611111111111)"/><use xlink:href="#F" transform="matrix(1,0,0,1,525,1473.842105202892) translate(113.70253086419754 89.48611111111111)"/><use xlink:href="#G" transform="matrix(1,0,0,1,525,1473.842105202892) translate(62.900061728395066 116.1527777777778)"/><path d="M861.03 417.58c0-3.3 2.68-6 6-6h131.6c3.3 0 6 2.7 6 6v105.47c0 3.32-2.7 6-6 6h-131.6c-3.32 0-6-2.68-6-6z" stroke="#5e5e5e" stroke-width="3" fill="#fff"/><use xlink:href="#k" transform="matrix(1,0,0,1,873.025641025641,423.578947352133) translate(6.388888888888893 23.65277777777778)"/><use xlink:href="#c" transform="matrix(1,0,0,1,873.025641025641,423.578947352133) translate(2.9012345679012412 50.31944444444445)"/><use xlink:href="#d" transform="matrix(1,0,0,1,873.025641025641,423.578947352133) translate(22.654320987654327 50.31944444444445)"/><use xlink:href="#e" transform="matrix(1,0,0,1,873.025641025641,423.578947352133) translate(87.53086419753086 50.31944444444445)"/><use xlink:href="#H" transform="matrix(1,0,0,1,873.025641025641,423.578947352133) translate(38.425925925925924 76.98611111111111)"/><path d="M488 700c17.67 0 32 17.9 32 40s-14.33 40-32 40h-96c-17.67 0-32-17.9-32-40s14.33-40 32-40z" stroke="#5e5e5e" stroke-width="3" fill="#fff"/><use xlink:href="#I" transform="matrix(1,0,0,1,365,705) translate(55.925925925925924 39.65277777777778)"/><path d="M610.74 1468.7h-2v-105.48h2zm0-126.8h-2v-88h2z" stroke="#5e5e5e" stroke-width=".05" fill="#5e5e5e"/><path d="M610.74 1469.78l-1.68-.12-.32.08v-1.05h2z" fill="#5e5e5e"/><path d="M610.77 1469.8l-1.7-.1-.35.07v-1.1h2.05zm-2-1.1v1l.3-.06 1.65.12v-1.05z" stroke="#5e5e5e" stroke-width=".05" fill="#5e5e5e"/><path d="M614.38 1252.9h-9.27l4.64-14.27z" fill="#5e5e5e"/><path d="M615.76 1253.9h-12.03l6-18.5zm-9.28-2H613l-3.26-10.03z" stroke="#5e5e5e" stroke-width=".05" fill="#5e5e5e"/><g><use xlink:href="#J" transform="matrix(1,0,0,1,593.4472934472934,1341.8862426860958) translate(0 14.222222222222223)"/></g><path d="M537.95 1122.42c0-3.3 2.7-6 6-6h131.6c3.3 0 6 2.7 6 6v105.47c0 3.3-2.7 6-6 6h-131.6c-3.3 0-6-2.7-6-6z" stroke="#5e5e5e" stroke-width="3" fill="#fff"/><g><use xlink:href="#K" transform="matrix(1,0,0,1,549.9487179487179,1128.4210525859723) translate(6.975308641975317 38.111111111111114)"/><use xlink:href="#L" transform="matrix(1,0,0,1,549.9487179487179,1128.4210525859723) translate(76.04938271604938 38.111111111111114)"/><use xlink:href="#M" transform="matrix(1,0,0,1,549.9487179487179,1128.4210525859723) translate(-2.0679012345678984 64.77777777777777)"/></g><path d="M341 1541.03l.7 2.64 1.8 1.77 2.63.72h174v2H345.87l-3.42-.93-2.53-2.53-.92-3.4v-138.1h2zm0-159.16h-2V1280h2z" stroke="#5e5e5e" stroke-width=".05" fill="#5e5e5e"/><path d="M521.1 1547.08l.24 1.08h-1.24v-2h1.23z" fill="#5e5e5e"/><path d="M521.14 1547.08l.23 1.1h-1.3v-2.05h1.3zm-1-.9v1.95h1.17l-.2-1.05.2-.9z" stroke="#5e5e5e" stroke-width=".05" fill="#5e5e5e"/><path d="M344.64 1279h-9.28l4.64-14.26z" fill="#5e5e5e"/><path d="M346 1280h-12l6-18.5zm-9.26-2h6.52l-3.26-10.03z" stroke="#5e5e5e" stroke-width=".05" fill="#5e5e5e"/><g><use xlink:href="#N" transform="matrix(1,0,0,1,320.2962962962963,1381.8657262721074) translate(0 14.222222222222223)"/></g><path d="M260 1146c0-3.3 2.7-6 6-6h148c3.3 0 6 2.7 6 6v108c0 3.3-2.7 6-6 6H266c-3.3 0-6-2.7-6-6z" stroke="#5e5e5e" stroke-width="3" fill="#fff"/><g><use xlink:href="#K" transform="matrix(1,0,0,1,272,1152) translate(14.975308641975317 39.111111111111114)"/><use xlink:href="#L" transform="matrix(1,0,0,1,272,1152) translate(84.04938271604938 39.111111111111114)"/><use xlink:href="#O" transform="matrix(1,0,0,1,272,1152) translate(-2.0617283950617207 65.77777777777777)"/></g><path d="M480 940c0 22.1-17.9 40-40 40s-40-17.9-40-40 17.9-40 40-40 40 17.9 40 40z" stroke="#5e5e5e" stroke-width="3" fill="#fff"/><g><use xlink:href="#P" transform="matrix(1,0,0,1,405,905) translate(27.592592592592595 39.65277777777778)"/></g><path d="M609.74 1113.92V946c0-3.3-2.68-6-6-6H500" stroke="#5e5e5e" stroke-width="2" fill="none"/><path d="M610.74 1114.92h-2v-1.02h2z" stroke="#5e5e5e" stroke-width=".05" fill="#5e5e5e"/><path d="M484.74 940l14.26-4.64v9.28z" stroke="#5e5e5e" stroke-width="2" fill="#5e5e5e"/><path d="M340 1137.5V946c0-3.3 2.7-6 6-6h34" stroke="#5e5e5e" stroke-width="2" fill="none"/><path d="M341 1138.5h-2v-1.03h2z" stroke="#5e5e5e" stroke-width=".05" fill="#5e5e5e"/><path d="M395.26 940L381 944.64v-9.28z" stroke="#5e5e5e" stroke-width="2" fill="#5e5e5e"/><path d="M440 897.5V800" stroke="#5e5e5e" stroke-width="2" fill="none"/><path d="M441 898.56l-.98-.06-1.02.03v-1.06h2z" stroke="#5e5e5e" stroke-width=".05" fill="#5e5e5e"/><path d="M440 784.74l4.64 14.26h-9.28z" stroke="#5e5e5e" stroke-width="2" fill="#5e5e5e"/><path d="M807.18 176.63c0 21.63-16.07 39.16-35.9 39.16-19.82 0-35.9-17.54-35.9-39.17 0-21.62 16.08-39.16 35.9-39.16 19.83 0 35.9 17.54 35.9 39.16z" stroke="#5e5e5e" stroke-width="3" fill="#fff"/><g><use xlink:href="#P" transform="matrix(1,0,0,1,740.3846153846154,142.4736842056399) translate(23.592592592592595 39.34027777777778)"/></g><path d="M771.28 100.82v16.65" stroke="#5e5e5e" stroke-width="2" fill="none"/><path d="M772.28 100.84h-2v-1.02h2z" stroke="#5e5e5e" stroke-width=".05" fill="#5e5e5e"/><path d="M771.28 132.74l-4.63-14.27h9.27z" stroke="#5e5e5e" stroke-width="2" fill="#5e5e5e"/><path d="M1217.55 176.56l2.53 2.52.92 3.42v1692.47l-.92 3.42-2.53 2.52-3.42.92H645.9l-3.4-.92-2.54-2.53-.92-3.43v-92.22l.92-3.4 2.53-2.54 3.4-.92h33.14v2h-32.87l-2.64.72-1.78 1.77-.7 2.65v91.7l.7 2.63 1.78 1.78 2.64.7h567.7l2.64-.7 1.8-1.78.7-2.64V182.77l-.7-2.64-1.8-1.77-2.63-.72h-386.7v-2h386.96z" stroke="#5e5e5e" stroke-width=".05" fill="#5e5e5e"/><path d="M680.04 1777.88H679v-2h1.04z" fill="#5e5e5e"/><path d="M680.06 1777.9H679v-2.04h1.06zm-1.02-2v1.96h.97v-1.95z" stroke="#5e5e5e" stroke-width=".05" fill="#5e5e5e"/><path d="M826.18 181.27l-14.26-4.64 14.26-4.63z" fill="#5e5e5e"/><path d="M827.18 182.64l-18.5-6 18.5-6.02zm-12.03-6l10.03 3.25v-6.53z" stroke="#5e5e5e" stroke-width=".05" fill="#5e5e5e"/><path d="M766.64 288.12c2.56-2.1 6.72-2.1 9.3 0l62.5 51.13c2.56 2.1 2.56 5.5 0 7.6L775.93 398c-2.58 2.1-6.74 2.1-9.3 0l-62.5-51.15c-2.57-2.1-2.57-5.5 0-7.6z" stroke="#5e5e5e" stroke-width="3" fill="#fff"/><g><use xlink:href="#Q" transform="matrix(1,0,0,1,704.4871794871794,289.3157894626898) translate(11.62845679012346 58.27777777777778)"/><use xlink:href="#R" transform="matrix(1,0,0,1,704.4871794871794,289.3157894626898) translate(54.7766049382716 58.27777777777778)"/></g><path d="M933.82 391.58h-2v-37.86h2zm-90.98-47.53v-2h61.7v2z" stroke="#5e5e5e" stroke-width=".05" fill="#5e5e5e"/><path d="M842.86 344.05h-1.18l.22-.7-.26-1.3h1.22z" fill="#5e5e5e"/><path d="M842.9 344.08h-1.25l.22-.73-.26-1.32h1.3zm-1.23-2l.25 1.27-.2.68h1.12v-1.95z" stroke="#5e5e5e" stroke-width=".05" fill="#5e5e5e"/><path d="M932.82 406.84l-4.63-14.26h9.26z" fill="#5e5e5e"/><path d="M932.82 410.08l-6-18.5h12zm-3.26-16.5l3.26 10.03 3.26-10.02z" stroke="#5e5e5e" stroke-width=".05" fill="#5e5e5e"/><g><use xlink:href="#J" transform="matrix(1,0,0,1,904.5457696638903,332.38596489884304) translate(0 14.222222222222223)"/></g><path d="M771.28 218.3v48.3" stroke="#5e5e5e" stroke-width="2" fill="none"/><path d="M771.25 217.3l1.03-.03v1.05h-2v-1.1z" stroke="#5e5e5e" stroke-width=".05" fill="#5e5e5e"/><path d="M771.28 281.87l-4.63-14.27h9.27z" stroke="#5e5e5e" stroke-width="2" fill="#5e5e5e"/><path d="M441 680h-2V401.08h2zm258.73-335.95h-253.6l-2.64.72-1.8 1.77-.7 2.65v30.55h-2v-30.83l.92-3.4 2.53-2.54 3.42-.93h253.86z" stroke="#5e5e5e" stroke-width=".05" fill="#5e5e5e"/><path d="M700.67 342.76l.26 1.3h-1.23v-2h1.18z" fill="#5e5e5e"/><path d="M700.7 342.76l.26 1.32h-1.28v-2.05h1.24zm-.97-.68v1.95h1.17l-.26-1.27.2-.68z" stroke="#5e5e5e" stroke-width=".05" fill="#5e5e5e"/><path d="M440 695.26L435.36 681h9.28z" fill="#5e5e5e"/><path d="M440 698.5l-6-18.5h12zm-3.26-16.5l3.26 10.03 3.26-10.03z" stroke="#5e5e5e" stroke-width=".05" fill="#5e5e5e"/><g><use xlink:href="#N" transform="matrix(1,0,0,1,420.2962962962963,379.7462498647146) translate(0 14.222222222222223)"/></g><defs><path fill="#333" d="M33 0v-248h34V0H33" id="S"/><path fill="#333" d="M190 0L58-211 59 0H30v-248h39L202-35l-2-213h31V0h-41" id="T"/><path fill="#333" d="M212-179c-10-28-35-45-73-45-59 0-87 40-87 99 0 60 29 101 89 101 43 0 62-24 78-52l27 14C228-24 195 4 139 4 59 4 22-46 18-125c-6-104 99-153 187-111 19 9 31 26 39 46" id="U"/><path fill="#333" d="M140-251c81 0 123 46 123 126C263-46 219 4 140 4 59 4 17-45 17-125s42-126 123-126zm0 227c63 0 89-41 89-101s-29-99-89-99c-61 0-89 39-89 99S79-25 140-24" id="V"/><g id="a"><use transform="matrix(0.06172839506172839,0,0,0.06172839506172839,0,0)" xlink:href="#S"/><use transform="matrix(0.06172839506172839,0,0,0.06172839506172839,6.172839506172839,0)" xlink:href="#T"/><use transform="matrix(0.06172839506172839,0,0,0.06172839506172839,22.160493827160494,0)" xlink:href="#S"/><use transform="matrix(0.06172839506172839,0,0,0.06172839506172839,28.333333333333332,0)" xlink:href="#U"/><use transform="matrix(0.06172839506172839,0,0,0.06172839506172839,44.32098765432099,0)" xlink:href="#S"/><use transform="matrix(0.06172839506172839,0,0,0.06172839506172839,50.49382716049383,0)" xlink:href="#V"/></g><path fill="#333" d="M205 0l-28-72H64L36 0H1l101-248h38L239 0h-34zm-38-99l-47-123c-12 45-31 82-46 123h93" id="W"/><path fill="#333" d="M30 0v-248h33v221h125V0H30" id="X"/><path fill="#333" d="M232-93c-1 65-40 97-104 97C67 4 28-28 28-90v-158h33c8 89-33 224 67 224 102 0 64-133 71-224h33v155" id="Y"/><path fill="#333" d="M233-177c-1 41-23 64-60 70L243 0h-38l-65-103H63V0H30v-248c88 3 205-21 203 71zM63-129c60-2 137 13 137-47 0-61-80-42-137-45v92" id="Z"/><g id="b"><use transform="matrix(0.06172839506172839,0,0,0.06172839506172839,0,0)" xlink:href="#U"/><use transform="matrix(0.06172839506172839,0,0,0.06172839506172839,15.987654320987653,0)" xlink:href="#W"/><use transform="matrix(0.06172839506172839,0,0,0.06172839506172839,30.80246913580247,0)" xlink:href="#X"/><use transform="matrix(0.06172839506172839,0,0,0.06172839506172839,43.148148148148145,0)" xlink:href="#U"/><use transform="matrix(0.06172839506172839,0,0,0.06172839506172839,59.1358024691358,0)" xlink:href="#Y"/><use transform="matrix(0.06172839506172839,0,0,0.06172839506172839,75.12345679012346,0)" xlink:href="#X"/><use transform="matrix(0.06172839506172839,0,0,0.06172839506172839,87.46913580246914,0)" xlink:href="#W"/><use transform="matrix(0.06172839506172839,0,0,0.06172839506172839,102.28395061728395,0)" xlink:href="#Z"/></g><use transform="matrix(0.06172839506172839,0,0,0.06172839506172839,0,0)" xlink:href="#W" id="c"/><path fill="#333" d="M127-220V0H93v-220H8v-28h204v28h-85" id="aa"/><g id="d"><use transform="matrix(0.06172839506172839,0,0,0.06172839506172839,0,0)" xlink:href="#T"/><use transform="matrix(0.06172839506172839,0,0,0.06172839506172839,15.987654320987653,0)" xlink:href="#V"/><use transform="matrix(0.06172839506172839,0,0,0.06172839506172839,33.2716049382716,0)" xlink:href="#aa"/><use transform="matrix(0.06172839506172839,0,0,0.06172839506172839,45.12345679012345,0)" xlink:href="#W"/></g><path fill="#333" d="M30-248c118-7 216 8 213 122C240-48 200 0 122 0H30v-248zM63-27c89 8 146-16 146-99s-60-101-146-95v194" id="ab"/><g id="e"><use transform="matrix(0.06172839506172839,0,0,0.06172839506172839,0,0)" xlink:href="#ab"/><use transform="matrix(0.06172839506172839,0,0,0.06172839506172839,15.987654320987653,0)" xlink:href="#W"/></g><path fill="#333" d="M27 0v-27h64v-190l-56 39v-29l58-41h29v221h61V0H27" id="ac"/><g id="f"><use transform="matrix(0.06172839506172839,0,0,0.06172839506172839,0,0)" xlink:href="#W"/><use transform="matrix(0.06172839506172839,0,0,0.06172839506172839,14.814814814814813,0)" xlink:href="#U"/><use transform="matrix(0.06172839506172839,0,0,0.06172839506172839,30.80246913580247,0)" xlink:href="#ac"/></g><path fill="#333" d="M240 0l2-218c-23 76-54 145-80 218h-23L58-218 59 0H30v-248h44l77 211c21-75 51-140 76-211h43V0h-30" id="ad"/><g id="g"><use transform="matrix(0.06172839506172839,0,0,0.06172839506172839,0,0)" xlink:href="#U"/><use transform="matrix(0.06172839506172839,0,0,0.06172839506172839,15.987654320987653,0)" xlink:href="#V"/><use transform="matrix(0.06172839506172839,0,0,0.06172839506172839,33.2716049382716,0)" xlink:href="#ad"/></g><path fill="#333" d="M30-248c87 1 191-15 191 75 0 78-77 80-158 76V0H30v-248zm33 125c57 0 124 11 124-50 0-59-68-47-124-48v98" id="ae"/><path fill="#333" d="M30 0v-248h187v28H63v79h144v27H63v87h162V0H30" id="af"/><path fill="#333" d="M185-189c-5-48-123-54-124 2 14 75 158 14 163 119 3 78-121 87-175 55-17-10-28-26-33-46l33-7c5 56 141 63 141-1 0-78-155-14-162-118-5-82 145-84 179-34 5 7 8 16 11 25" id="ag"/><g id="h"><use transform="matrix(0.06172839506172839,0,0,0.06172839506172839,0,0)" xlink:href="#ae"/><use transform="matrix(0.06172839506172839,0,0,0.06172839506172839,14.814814814814813,0)" xlink:href="#af"/><use transform="matrix(0.06172839506172839,0,0,0.06172839506172839,29.629629629629626,0)" xlink:href="#ag"/><use transform="matrix(0.06172839506172839,0,0,0.06172839506172839,44.44444444444444,0)" xlink:href="#V"/></g><g id="i"><use transform="matrix(0.06172839506172839,0,0,0.06172839506172839,0,0)" xlink:href="#ab"/><use transform="matrix(0.06172839506172839,0,0,0.06172839506172839,15.987654320987653,0)" xlink:href="#af"/></g><path fill="#333" d="M101-251c68 0 85 55 85 127S166 4 100 4C33 4 14-52 14-124c0-73 17-127 87-127zm-1 229c47 0 54-49 54-102s-4-102-53-102c-51 0-55 48-55 102 0 53 5 102 54 102" id="ah"/><path fill="#333" d="M68-38c1 34 0 65-14 84H32c9-13 17-26 17-46H33v-38h35" id="ai"/><path fill="#333" d="M54-142c48-35 137-8 131 61C196 18 31 33 14-55l32-4c7 23 22 37 52 37 35-1 51-22 54-58 4-55-73-65-99-34H22l8-134h141v27H59" id="aj"/><g id="j"><use transform="matrix(0.06172839506172839,0,0,0.06172839506172839,0,0)" xlink:href="#ah"/><use transform="matrix(0.06172839506172839,0,0,0.06172839506172839,12.345679012345679,0)" xlink:href="#ai"/><use transform="matrix(0.06172839506172839,0,0,0.06172839506172839,18.51851851851852,0)" xlink:href="#ac"/><use transform="matrix(0.06172839506172839,0,0,0.06172839506172839,30.864197530864196,0)" xlink:href="#aj"/></g><path fill="#333" d="M160-131c35 5 61 23 61 61C221 17 115-2 30 0v-248c76 3 177-17 177 60 0 33-19 50-47 57zm-97-11c50-1 110 9 110-42 0-47-63-36-110-37v79zm0 115c55-2 124 14 124-45 0-56-70-42-124-44v89" id="ak"/><g id="k"><use transform="matrix(0.06172839506172839,0,0,0.06172839506172839,0,0)" xlink:href="#Z"/><use transform="matrix(0.06172839506172839,0,0,0.06172839506172839,15.987654320987653,0)" xlink:href="#af"/><use transform="matrix(0.06172839506172839,0,0,0.06172839506172839,30.80246913580247,0)" xlink:href="#U"/><use transform="matrix(0.06172839506172839,0,0,0.06172839506172839,46.79012345679012,0)" xlink:href="#af"/><use transform="matrix(0.06172839506172839,0,0,0.06172839506172839,61.60493827160494,0)" xlink:href="#ak"/><use transform="matrix(0.06172839506172839,0,0,0.06172839506172839,76.41975308641975,0)" xlink:href="#af"/><use transform="matrix(0.06172839506172839,0,0,0.06172839506172839,91.23456790123456,0)" xlink:href="#Z"/></g><path fill="#333" d="M101-251c82-7 93 87 43 132L82-64C71-53 59-42 53-27h129V0H18c2-99 128-94 128-182 0-28-16-43-45-43s-46 15-49 41l-32-3c6-41 34-60 81-64" id="al"/><g id="l"><use transform="matrix(0.06172839506172839,0,0,0.06172839506172839,0,0)" xlink:href="#W"/><use transform="matrix(0.06172839506172839,0,0,0.06172839506172839,14.814814814814813,0)" xlink:href="#U"/><use transform="matrix(0.06172839506172839,0,0,0.06172839506172839,30.80246913580247,0)" xlink:href="#al"/></g><g id="m"><use transform="matrix(0.06172839506172839,0,0,0.06172839506172839,0,0)" xlink:href="#W"/><use transform="matrix(0.06172839506172839,0,0,0.06172839506172839,14.814814814814813,0)" xlink:href="#U"/><use transform="matrix(0.06172839506172839,0,0,0.06172839506172839,30.80246913580247,0)" xlink:href="#al"/></g><path fill="#333" d="M126-127c33 6 58 20 58 59 0 88-139 92-164 29-3-8-5-16-6-25l32-3c6 27 21 44 54 44 32 0 52-15 52-46 0-38-36-46-79-43v-28c39 1 72-4 72-42 0-27-17-43-46-43-28 0-47 15-49 41l-32-3c6-42 35-63 81-64 48-1 79 21 79 65 0 36-21 52-52 59" id="am"/><g id="n"><use transform="matrix(0.06172839506172839,0,0,0.06172839506172839,0,0)" xlink:href="#ah"/><use transform="matrix(0.06172839506172839,0,0,0.06172839506172839,12.345679012345679,0)" xlink:href="#ai"/><use transform="matrix(0.06172839506172839,0,0,0.06172839506172839,18.51851851851852,0)" xlink:href="#am"/><use transform="matrix(0.06172839506172839,0,0,0.06172839506172839,30.864197530864196,0)" xlink:href="#ah"/></g><path fill="#333" d="M143 4C61 4 22-44 18-125c-5-107 100-154 193-111 17 8 29 25 37 43l-32 9c-13-25-37-40-76-40-61 0-88 39-88 99 0 61 29 100 91 101 35 0 62-11 79-27v-45h-74v-28h105v86C228-13 192 4 143 4" id="an"/><g id="o"><use transform="matrix(0.06172839506172839,0,0,0.06172839506172839,0,0)" xlink:href="#W"/><use transform="matrix(0.06172839506172839,0,0,0.06172839506172839,14.814814814814813,0)" xlink:href="#an"/></g><g id="p"><use transform="matrix(0.06172839506172839,0,0,0.06172839506172839,0,0)" xlink:href="#W"/><use transform="matrix(0.06172839506172839,0,0,0.06172839506172839,14.814814814814813,0)" xlink:href="#an"/></g><g id="q"><use transform="matrix(0.06172839506172839,0,0,0.06172839506172839,0,0)" xlink:href="#ah"/><use transform="matrix(0.06172839506172839,0,0,0.06172839506172839,12.345679012345679,0)" xlink:href="#ai"/><use transform="matrix(0.06172839506172839,0,0,0.06172839506172839,18.51851851851852,0)" xlink:href="#ac"/><use transform="matrix(0.06172839506172839,0,0,0.06172839506172839,30.864197530864196,0)" xlink:href="#ah"/></g><path fill="#333" d="M63-220v92h138v28H63V0H30v-248h175v28H63" id="ao"/><g id="r"><use transform="matrix(0.06172839506172839,0,0,0.06172839506172839,0,0)" xlink:href="#W"/><use transform="matrix(0.06172839506172839,0,0,0.06172839506172839,14.814814814814813,0)" xlink:href="#ao"/></g><g id="s"><use transform="matrix(0.06172839506172839,0,0,0.06172839506172839,0,0)" xlink:href="#W"/><use transform="matrix(0.06172839506172839,0,0,0.06172839506172839,14.814814814814813,0)" xlink:href="#ao"/></g><path fill="#333" d="M155-56V0h-30v-56H8v-25l114-167h33v167h35v25h-35zm-30-156c-27 46-58 90-88 131h88v-131" id="ap"/><g id="t"><use transform="matrix(0.06172839506172839,0,0,0.06172839506172839,0,0)" xlink:href="#ah"/><use transform="matrix(0.06172839506172839,0,0,0.06172839506172839,12.345679012345679,0)" xlink:href="#ai"/><use transform="matrix(0.06172839506172839,0,0,0.06172839506172839,18.51851851851852,0)" xlink:href="#ap"/><use transform="matrix(0.06172839506172839,0,0,0.06172839506172839,30.864197530864196,0)" xlink:href="#aj"/></g><g id="u"><use transform="matrix(0.06172839506172839,0,0,0.06172839506172839,0,0)" xlink:href="#ag"/><use transform="matrix(0.06172839506172839,0,0,0.06172839506172839,14.814814814814813,0)" xlink:href="#V"/><use transform="matrix(0.06172839506172839,0,0,0.06172839506172839,32.09876543209876,0)" xlink:href="#ad"/><use transform="matrix(0.06172839506172839,0,0,0.06172839506172839,50.55555555555554,0)" xlink:href="#W"/><use transform="matrix(0.06172839506172839,0,0,0.06172839506172839,65.37037037037035,0)" xlink:href="#Z"/></g><g id="v"><use transform="matrix(0.06172839506172839,0,0,0.06172839506172839,0,0)" xlink:href="#aa"/><use transform="matrix(0.06172839506172839,0,0,0.06172839506172839,13.08641975308642,0)" xlink:href="#V"/><use transform="matrix(0.06172839506172839,0,0,0.06172839506172839,30.370370370370367,0)" xlink:href="#ab"/><use transform="matrix(0.06172839506172839,0,0,0.06172839506172839,46.35802469135802,0)" xlink:href="#W"/><use transform="matrix(0.06172839506172839,0,0,0.06172839506172839,61.172839506172835,0)" xlink:href="#ag"/></g><g id="w"><use transform="matrix(0.06172839506172839,0,0,0.06172839506172839,0,0)" xlink:href="#W"/><use transform="matrix(0.06172839506172839,0,0,0.06172839506172839,14.814814814814813,0)" xlink:href="#ag"/></g><g id="x"><use transform="matrix(0.06172839506172839,0,0,0.06172839506172839,0,0)" xlink:href="#T"/><use transform="matrix(0.06172839506172839,0,0,0.06172839506172839,15.987654320987653,0)" xlink:href="#V"/><use transform="matrix(0.06172839506172839,0,0,0.06172839506172839,33.2716049382716,0)" xlink:href="#aa"/><use transform="matrix(0.06172839506172839,0,0,0.06172839506172839,45.12345679012345,0)" xlink:href="#W"/><use transform="matrix(0.06172839506172839,0,0,0.06172839506172839,59.938271604938265,0)" xlink:href="#ag"/></g><g id="y"><use transform="matrix(0.06172839506172839,0,0,0.06172839506172839,0,0)" xlink:href="#U"/><use transform="matrix(0.06172839506172839,0,0,0.06172839506172839,15.987654320987653,0)" xlink:href="#V"/><use transform="matrix(0.06172839506172839,0,0,0.06172839506172839,33.2716049382716,0)" xlink:href="#ad"/></g><g id="z"><use transform="matrix(0.06172839506172839,0,0,0.06172839506172839,0,0)" xlink:href="#V"/><use transform="matrix(0.06172839506172839,0,0,0.06172839506172839,17.28395061728395,0)" xlink:href="#ag"/></g><g id="A"><use transform="matrix(0.06172839506172839,0,0,0.06172839506172839,0,0)" xlink:href="#ae"/><use transform="matrix(0.06172839506172839,0,0,0.06172839506172839,14.814814814814813,0)" xlink:href="#af"/><use transform="matrix(0.06172839506172839,0,0,0.06172839506172839,29.629629629629626,0)" xlink:href="#ag"/><use transform="matrix(0.06172839506172839,0,0,0.06172839506172839,44.44444444444444,0)" xlink:href="#V"/><use transform="matrix(0.06172839506172839,0,0,0.06172839506172839,61.72839506172839,0)" xlink:href="#ag"/></g><g id="B"><use transform="matrix(0.06172839506172839,0,0,0.06172839506172839,0,0)" xlink:href="#ao"/><use transform="matrix(0.06172839506172839,0,0,0.06172839506172839,13.518518518518517,0)" xlink:href="#V"/><use transform="matrix(0.06172839506172839,0,0,0.06172839506172839,30.80246913580247,0)" xlink:href="#S"/></g><g id="C"><use transform="matrix(0.06172839506172839,0,0,0.06172839506172839,0,0)" xlink:href="#ad"/><use transform="matrix(0.06172839506172839,0,0,0.06172839506172839,18.456790123456788,0)" xlink:href="#W"/><use transform="matrix(0.06172839506172839,0,0,0.06172839506172839,33.2716049382716,0)" xlink:href="#S"/><use transform="matrix(0.06172839506172839,0,0,0.06172839506172839,39.44444444444444,0)" xlink:href="#V"/><use transform="matrix(0.06172839506172839,0,0,0.06172839506172839,56.72839506172839,0)" xlink:href="#Z"/></g><g id="D"><use transform="matrix(0.06172839506172839,0,0,0.06172839506172839,0,0)" xlink:href="#V"/><use transform="matrix(0.06172839506172839,0,0,0.06172839506172839,17.28395061728395,0)" xlink:href="#Y"/></g><g id="E"><use transform="matrix(0.06172839506172839,0,0,0.06172839506172839,0,0)" xlink:href="#S"/><use transform="matrix(0.06172839506172839,0,0,0.06172839506172839,6.172839506172839,0)" xlink:href="#an"/><use transform="matrix(0.06172839506172839,0,0,0.06172839506172839,23.456790123456788,0)" xlink:href="#Y"/><use transform="matrix(0.06172839506172839,0,0,0.06172839506172839,39.44444444444444,0)" xlink:href="#W"/><use transform="matrix(0.06172839506172839,0,0,0.06172839506172839,54.25925925925925,0)" xlink:href="#X"/></g><use transform="matrix(0.06172839506172839,0,0,0.06172839506172839,0,0)" xlink:href="#W" id="F"/><path fill="#333" d="M103-251c84 0 111 97 45 133-19 10-37 24-39 52H78c0-63 77-55 77-114 0-30-21-42-52-43-32 0-53 17-56 46l-32-2c7-45 34-72 88-72zM77 0v-35h34V0H77" id="aq"/><g id="G"><use transform="matrix(0.06172839506172839,0,0,0.06172839506172839,0,0)" xlink:href="#aj"/><use transform="matrix(0.06172839506172839,0,0,0.06172839506172839,12.345679012345679,0)" xlink:href="#ai"/><use transform="matrix(0.06172839506172839,0,0,0.06172839506172839,18.51851851851852,0)" xlink:href="#ah"/><use transform="matrix(0.06172839506172839,0,0,0.06172839506172839,30.864197530864196,0)" xlink:href="#aq"/></g><g id="H"><use transform="matrix(0.06172839506172839,0,0,0.06172839506172839,0,0)" xlink:href="#W"/><use transform="matrix(0.06172839506172839,0,0,0.06172839506172839,14.814814814814813,0)" xlink:href="#U"/><use transform="matrix(0.06172839506172839,0,0,0.06172839506172839,30.80246913580247,0)" xlink:href="#ac"/></g><g id="I"><use transform="matrix(0.06172839506172839,0,0,0.06172839506172839,0,0)" xlink:href="#ao"/><use transform="matrix(0.06172839506172839,0,0,0.06172839506172839,13.518518518518517,0)" xlink:href="#S"/><use transform="matrix(0.06172839506172839,0,0,0.06172839506172839,19.691358024691358,0)" xlink:href="#ad"/></g><path fill="#333" d="M169-182c-1-43-94-46-97-3 18 66 151 10 154 114 3 95-165 93-204 36-6-8-10-19-12-30l50-8c3 46 112 56 116 5-17-69-150-10-154-114-4-87 153-88 188-35 5 8 8 18 10 28" id="ar"/><path fill="#333" d="M25-224v-37h50v37H25zM25 0v-190h50V0H25" id="as"/><path fill="#333" d="M220-157c-53 9-28 100-34 157h-49v-107c1-27-5-49-29-50C55-147 81-57 75 0H25l-1-190h47c2 12-1 28 3 38 10-53 101-56 108 0 13-22 24-43 59-42 82 1 51 116 57 194h-49v-107c-1-25-5-48-29-50" id="at"/><g id="J"><use transform="matrix(0.04938271604938272,0,0,0.04938271604938272,0,0)" xlink:href="#ar"/><use transform="matrix(0.04938271604938272,0,0,0.04938271604938272,11.851851851851853,0)" xlink:href="#as"/><use transform="matrix(0.04938271604938272,0,0,0.04938271604938272,16.790123456790127,0)" xlink:href="#at"/></g><path fill="#333" d="M137 0h-34L2-248h35l83 218 83-218h36" id="au"/><g id="K"><use transform="matrix(0.06172839506172839,0,0,0.06172839506172839,0,0)" xlink:href="#au"/><use transform="matrix(0.06172839506172839,0,0,0.06172839506172839,14.814814814814813,0)" xlink:href="#V"/><use transform="matrix(0.06172839506172839,0,0,0.06172839506172839,32.09876543209876,0)" xlink:href="#U"/><use transform="matrix(0.06172839506172839,0,0,0.06172839506172839,48.08641975308641,0)" xlink:href="#af"/></g><g id="L"><use transform="matrix(0.06172839506172839,0,0,0.06172839506172839,0,0)" xlink:href="#ao"/><use transform="matrix(0.06172839506172839,0,0,0.06172839506172839,13.518518518518517,0)" xlink:href="#V"/><use transform="matrix(0.06172839506172839,0,0,0.06172839506172839,30.80246913580247,0)" xlink:href="#S"/></g><g id="M"><use transform="matrix(0.06172839506172839,0,0,0.06172839506172839,0,0)" xlink:href="#W"/><use transform="matrix(0.06172839506172839,0,0,0.06172839506172839,14.814814814814813,0)" xlink:href="#ae"/><use transform="matrix(0.06172839506172839,0,0,0.06172839506172839,29.629629629629626,0)" xlink:href="#Z"/><use transform="matrix(0.06172839506172839,0,0,0.06172839506172839,45.61728395061728,0)" xlink:href="#V"/><use transform="matrix(0.06172839506172839,0,0,0.06172839506172839,62.90123456790123,0)" xlink:href="#au"/><use transform="matrix(0.06172839506172839,0,0,0.06172839506172839,76.04938271604938,0)" xlink:href="#W"/><use transform="matrix(0.06172839506172839,0,0,0.06172839506172839,90.86419753086419,0)" xlink:href="#ab"/><use transform="matrix(0.06172839506172839,0,0,0.06172839506172839,106.85185185185185,0)" xlink:href="#V"/></g><path fill="#333" d="M175 0L67-191c6 58 2 128 3 191H24v-248h59L193-55c-6-58-2-129-3-193h46V0h-61" id="av"/><path fill="#333" d="M101-320c28 0 65 44 74 0h23c0 29-10 51-39 51-28-1-66-45-74 0H61c2-28 9-52 40-51zM199 0l-22-63H83L61 0H9l90-248h61L250 0h-51zm-33-102l-36-108c-10 38-24 72-36 108h72" id="aw"/><path fill="#333" d="M140-251c80 0 125 45 125 126S219 4 139 4C58 4 15-44 15-125s44-126 125-126zm-1 214c52 0 73-35 73-88 0-50-21-86-72-86-52 0-73 35-73 86s22 88 72 88" id="ax"/><g id="N"><use transform="matrix(0.04938271604938272,0,0,0.04938271604938272,0,0)" xlink:href="#av"/><use transform="matrix(0.04938271604938272,0,0,0.04938271604938272,12.790123456790125,0)" xlink:href="#aw"/><use transform="matrix(0.04938271604938272,0,0,0.04938271604938272,25.58024691358025,0)" xlink:href="#ax"/></g><g id="O"><use transform="matrix(0.06172839506172839,0,0,0.06172839506172839,0,0)" xlink:href="#Z"/><use transform="matrix(0.06172839506172839,0,0,0.06172839506172839,15.987654320987653,0)" xlink:href="#af"/><use transform="matrix(0.06172839506172839,0,0,0.06172839506172839,30.80246913580247,0)" xlink:href="#ae"/><use transform="matrix(0.06172839506172839,0,0,0.06172839506172839,45.61728395061728,0)" xlink:href="#Z"/><use transform="matrix(0.06172839506172839,0,0,0.06172839506172839,61.60493827160493,0)" xlink:href="#V"/><use transform="matrix(0.06172839506172839,0,0,0.06172839506172839,78.88888888888889,0)" xlink:href="#au"/><use transform="matrix(0.06172839506172839,0,0,0.06172839506172839,92.03703703703702,0)" xlink:href="#W"/><use transform="matrix(0.06172839506172839,0,0,0.06172839506172839,106.85185185185183,0)" xlink:href="#ab"/><use transform="matrix(0.06172839506172839,0,0,0.06172839506172839,122.83950617283949,0)" xlink:href="#V"/></g><use transform="matrix(0.06172839506172839,0,0,0.06172839506172839,0,0)" xlink:href="#W" id="P"/><path fill="#333" d="M59-47c-2 24 18 29 38 22v24C64 9 27 4 27-40v-127H5v-23h24l9-43h21v43h35v23H59v120" id="ay"/><path fill="#333" d="M100-194c63 0 86 42 84 106H49c0 40 14 67 53 68 26 1 43-12 49-29l28 8c-11 28-37 45-77 45C44 4 14-33 15-96c1-61 26-98 85-98zm52 81c6-60-76-77-97-28-3 7-6 17-6 28h103" id="az"/><path fill="#333" d="M210-169c-67 3-38 105-44 169h-31v-121c0-29-5-50-35-48C34-165 62-65 56 0H25l-1-190h30c1 10-1 24 2 32 10-44 99-50 107 0 11-21 27-35 58-36 85-2 47 119 55 194h-31v-121c0-29-5-49-35-48" id="aA"/><g id="Q"><use transform="matrix(0.06172839506172839,0,0,0.06172839506172839,0,0)" xlink:href="#ay"/><use transform="matrix(0.06172839506172839,0,0,0.06172839506172839,6.172839506172839,0)" xlink:href="#az"/><use transform="matrix(0.06172839506172839,0,0,0.06172839506172839,18.51851851851852,0)" xlink:href="#aA"/></g><path fill="#333" d="M141-36C126-15 110 5 73 4 37 3 15-17 15-53c-1-64 63-63 125-63 3-35-9-54-41-54-24 1-41 7-42 31l-33-3c5-37 33-52 76-52 45 0 72 20 72 64v82c-1 20 7 32 28 27v20c-31 9-61-2-59-35zM48-53c0 20 12 33 32 33 41-3 63-29 60-74-43 2-92-5-92 41" id="aB"/><path fill="#333" d="M24 0v-261h32V0H24" id="aC"/><path fill="#333" d="M84 4C-5 8 30-112 23-190h32v120c0 31 7 50 39 49 72-2 45-101 50-169h31l1 190h-30c-1-10 1-25-2-33-11 22-28 36-60 37" id="aD"/><path fill="#333" d="M117-194c89-4 53 116 60 194h-32v-121c0-31-8-49-39-48C34-167 62-67 57 0H25l-1-190h30c1 10-1 24 2 32 11-22 29-35 61-36" id="aE"/><path fill="#333" d="M100-194c62-1 85 37 85 99 1 63-27 99-86 99S16-35 15-95c0-66 28-99 85-99zM99-20c44 1 53-31 53-75 0-43-8-75-51-75s-53 32-53 75 10 74 51 75" id="aF"/><g id="R"><use transform="matrix(0.06172839506172839,0,0,0.06172839506172839,0,0)" xlink:href="#aB"/><use transform="matrix(0.06172839506172839,0,0,0.06172839506172839,12.345679012345679,0)" xlink:href="#aC"/><use transform="matrix(0.06172839506172839,0,0,0.06172839506172839,17.22222222222222,0)" xlink:href="#aD"/><use transform="matrix(0.06172839506172839,0,0,0.06172839506172839,29.5679012345679,0)" xlink:href="#aE"/><use transform="matrix(0.06172839506172839,0,0,0.06172839506172839,41.913580246913575,0)" xlink:href="#aF"/><use transform="matrix(0.06172839506172839,0,0,0.06172839506172839,54.25925925925925,0)" xlink:href="#aq"/></g></defs></g></svg>